# xmcd CD database file
#
# Track frame offsets:
#	150
#	10632
#	26685
#	41290
#	59722
#	73647
#	87207
#	100022
#	122697
#	135842
#	151432
#	174227
#	189070
#	205037
#	223127
#	237525
#	252297
#	263940
#
# Disc length: 3682 seconds
#
# Revision: 1
# Processed by: cddbd v1.5.2PL0 Copyright (c) Steve Scherf et al.
# Submitted via: CDex 1.51
#
DISCID=ec0e6012
DTITLE=Various Artist - O Melhor da Decada Explosiva
DYEAR=1900
DGENRE=Merengue
TTITLE0=Tutti Frutti - Long Tall Sally
TTITLE1=Suzie Q
TTITLE2=Runaway
TTITLE3=Only You - he Great Pretender
TTITLE4=Rose Garden
TTITLE5=Proud Mary
TTITLE6=Ob-La-Di, Ob-La-Da - Te Ballad of John and Yoko
TTITLE7=Tanto Cara - Il Mondo - L'Amore Se Ne Va
TTITLE8=San Francisco(Be Sure To Wear Some Flowers In Your Hair)
TTITLE9=My Sweet Lord
TTITLE10=Et Maintenant - Ma Vie - Au Revoir
TTITLE11=Listen To The Music
TTITLE12=Alone Again(Naturally)
TTITLE13=How Deep Is Your Love
TTITLE14=Evil Ways
TTITLE15=Perfidia - La Bamba
TTITLE16=Na Na Hey Hey, Kiss Him Goodbye
TTITLE17=I Love To Love
EXTD=
EXTT0=
EXTT1=
EXTT2=
EXTT3=
EXTT4=
EXTT5=
EXTT6=
EXTT7=
EXTT8=
EXTT9=
EXTT10=
EXTT11=
EXTT12=
EXTT13=
EXTT14=
EXTT15=
EXTT16=
EXTT17=
PLAYORDER=
